<svg width="74" height="101" viewBox="0 0 74 101" fill="none" xmlns="http://www.w3.org/2000/svg">
<path d="M44 13.5C44 16.8137 40.866 22 37 22C33.134 22 30.5 16.8137 30.5 13.5C30.5 10.1863 33.134 10.5 37 10.5C40.866 10.5 44 10.1863 44 13.5Z" fill="white"/>
<path d="M46 15.1011H28.1429V16.4494H46V15.1011Z" fill="black"/>
<path d="M30.8571 17.2584C32.2857 20.0899 35 22.5 37 22.5C39.1429 22.5 42 20.0899 43.4286 17.2584H41.5714C40.4286 19.4157 38.4286 21.1685 37 21.1685C35.5714 21.1685 33.8571 19.2809 32.7143 17.2584H30.8571Z" fill="black"/>
<path d="M34 9.5C34.8571 9.5 35.4286 9.73034 36 10V5L34 4.98876V3.50562H36V1H38V3.50562H40V5L38 4.98876V9.97753C38.1016 9.94557 38.2273 9.89846 38.3694 9.84518C38.8269 9.67367 39.455 9.4382 40 9.4382C42.5714 9.4382 44.4286 11.3258 44.4286 14.0225H42.5714C42.5714 12.5393 42 10.9213 40 10.9213C38.8571 10.9213 37.4286 11.4607 37 12C36.5714 11.3258 35.2857 10.9213 34 10.9213C31.8571 10.9213 31.7143 12.5393 31.7143 14.0225H30C30 11.3258 31.4286 9.5 34 9.5Z" fill="black"/>
<path d="M73 64C73 83.8823 56.8823 100 37 100C17.1177 100 1 83.8823 1 64C1 44.1177 17.1177 28 37 28C56.8823 28 73 44.1177 73 64Z" fill="white" stroke="black" stroke-width="2"/>
<path d="M64.4141 85.7578C62.75 87.8516 60.8516 89.75 58.7578 91.4141L51.6221 84.2783C53.7964 82.7077 55.7077 80.7964 57.2783 78.6221L64.4141 85.7578Z" fill="black"/>
<path d="M37 38.5C51.0833 38.5 62.5 49.9167 62.5 64C62.5 78.0833 51.0833 89.5 37 89.5C22.9167 89.5 11.5 78.0833 11.5 64C11.5 49.9167 22.9167 38.5 37 38.5ZM14.5518 65.5C15.2908 76.7309 24.2691 85.7092 35.5 86.4482V65.5H14.5518ZM38.5 86.4482C49.7309 85.7092 58.7092 76.7309 59.4482 65.5H38.5V86.4482ZM38.5 62.5H59.4482C58.7092 51.269 49.7309 42.2889 38.5 41.5498V62.5ZM35.5 41.5498C24.2691 42.2889 15.2908 51.269 14.5518 62.5H35.5V41.5498Z" fill="black" stroke="black"/>
</svg>
