<svg width="135" height="183" viewBox="0 0 135 183" fill="none" xmlns="http://www.w3.org/2000/svg">
<path opacity="0.999" d="M25.8996 0.000340665C19.0241 0.0714937 12.4544 2.85392 7.61739 7.74324C2.7804 12.6326 0.0668501 19.2339 0.066144 26.1133C0.0660079 30.6396 1.24164 35.0883 3.47776 39.0231C5.71388 42.9579 8.93371 46.2437 12.8215 48.5583V134.395C8.91588 136.704 5.67931 139.992 3.43095 143.935C1.1826 147.878 8.22438e-05 152.338 5.67919e-07 156.878C-0.000714485 160.307 0.673806 163.704 1.98502 166.873C3.29623 170.042 5.21846 172.921 7.64197 175.347C10.0655 177.773 12.9428 179.697 16.1096 181.01C19.2765 182.323 22.6708 182.999 26.0989 183C29.5278 183.001 32.9232 182.326 36.0912 181.013C39.2593 179.701 42.1378 177.776 44.5624 175.351C46.987 172.925 48.9102 170.045 50.222 166.875C51.5339 163.705 52.2087 160.308 52.208 156.878C52.2045 149.988 49.4804 143.379 44.6289 138.49C46.5148 136.479 48.2479 134.969 49.8336 133.948C53.3251 131.701 56.6576 130.742 63.1873 130.679C83.8399 130.48 100.349 119.63 109.241 105.678C117.068 93.3974 118.065 81.4147 118.188 74.5287C122.092 72.2179 125.326 68.9292 127.573 64.9867C129.82 61.0442 131.001 56.584 131 52.0457C130.999 48.6158 130.324 45.2197 129.011 42.0512C127.699 38.8826 125.776 36.0038 123.351 33.5789C120.927 31.1541 118.049 29.2308 114.881 27.9189C111.714 26.6069 108.319 25.932 104.891 25.9327C104.802 25.9323 104.714 25.9323 104.625 25.9327C97.7492 26.0039 91.1795 28.7863 86.3425 33.6756C81.5055 38.5649 78.7919 45.1663 78.7912 52.0457C78.79 56.6477 80.0042 61.1683 82.3108 65.1499C84.6175 69.1314 87.9346 72.4324 91.9265 74.7187C91.8532 79.7142 91.2832 85.0462 87.13 91.5667C82.6464 98.602 74.851 104.271 62.9395 104.386C54.6091 104.467 46.4756 106.055 39.2433 109.755V48.7198C43.206 46.4259 46.4959 43.1296 48.7831 39.1617C51.0703 35.1937 52.2742 30.6938 52.274 26.1133C52.2735 22.6834 51.5977 19.2872 50.2853 16.1187C48.9729 12.9501 47.0495 10.0712 44.625 7.64637C42.2006 5.22154 39.3225 3.29826 36.155 1.98635C32.9876 0.674439 29.593 -0.000410702 26.1649 0.000340665C26.076 -0.000113555 25.9871 -0.000113555 25.8982 0.000340665H25.8996ZM25.716 13.1518C25.8685 13.1491 26.0212 13.1491 26.1738 13.1518C29.6495 13.1529 32.9826 14.5349 35.4403 16.9939C37.8981 19.4529 39.2793 22.7877 39.2803 26.2653C39.2811 27.988 38.9426 29.694 38.2843 31.2859C37.626 32.8777 36.6608 34.3243 35.4437 35.5429C34.2266 36.7615 32.7816 37.7283 31.191 38.3881C29.6005 39.0479 27.8956 39.3877 26.1738 39.3883C24.4519 39.3878 22.747 39.0479 21.1565 38.3881C19.5659 37.7283 18.1208 36.7615 16.9037 35.5429C15.6866 34.3243 14.7213 32.8778 14.063 31.2859C13.4047 29.6941 13.0663 27.9881 13.067 26.2653C13.0659 22.8653 14.3844 19.5978 16.7443 17.1515C19.1043 14.7051 22.3214 13.2711 25.7176 13.1518H25.716ZM104.432 39.0842C104.585 39.0815 104.737 39.0815 104.89 39.0842C108.366 39.0853 111.699 40.4673 114.156 42.9263C116.614 45.3853 117.995 48.7201 117.996 52.1977C117.997 53.9204 117.659 55.6264 117 57.2183C116.342 58.8101 115.377 60.2566 114.16 61.4752C112.943 62.6938 111.498 63.6606 109.907 64.3204C108.316 64.9803 106.612 65.3201 104.89 65.3207C103.168 65.3201 101.463 64.9803 99.8726 64.3205C98.282 63.6607 96.8369 62.6939 95.6199 61.4753C94.4028 60.2567 93.4375 58.8101 92.7792 57.2183C92.1209 55.6264 91.7825 53.9204 91.7832 52.1977C91.7821 48.7993 93.0992 45.5331 95.4572 43.087C97.8152 40.6409 101.03 39.2059 104.424 39.0842H104.432ZM25.64 143.916C25.7926 143.913 25.9453 143.913 26.0978 143.916C29.5736 143.917 32.9067 145.299 35.3644 147.758C37.8222 150.217 39.2034 153.552 39.2045 157.03C39.2052 158.752 38.8667 160.458 38.2084 162.05C37.5501 163.642 36.5849 165.089 35.3678 166.307C34.1507 167.526 32.7056 168.493 31.1151 169.152C29.5245 169.812 27.8197 170.152 26.0978 170.153C24.376 170.152 22.6711 169.812 21.0806 169.152C19.4901 168.493 18.045 167.526 16.8279 166.307C15.6108 165.089 14.6456 163.642 13.9873 162.05C13.329 160.458 12.9905 158.752 12.9912 157.03C12.9901 153.631 14.3073 150.365 16.6652 147.919C19.0232 145.473 22.238 144.038 25.6325 143.916H25.64Z" fill="black"/>
<path d="M111.5 183C124.479 183 135 172.479 135 159.5C135 146.521 124.479 136 111.5 136C98.5213 136 88 146.521 88 159.5C88 172.479 98.5213 183 111.5 183Z" fill="#0109E7"/>
</svg>
