<svg width="477" height="647" viewBox="0 0 477 647" fill="none" xmlns="http://www.w3.org/2000/svg">
<path opacity="0.999" d="M91.44 0.00120274C67.1658 0.252413 43.9709 10.0759 26.8936 27.3379C9.81634 44.5999 0.236018 67.9062 0.233525 92.1944C0.233045 108.175 4.38367 123.881 12.2784 137.773C20.1732 151.665 31.5409 163.266 45.2671 171.438V474.488C31.478 482.642 20.0511 494.251 12.1132 508.17C4.17522 522.09 0.000290366 537.839 2.00507e-06 553.865C-0.00252253 565.974 2.37891 577.965 7.00822 589.153C11.6375 600.342 18.4241 610.508 26.9804 619.072C35.5368 627.636 45.6953 634.43 56.876 639.066C68.0567 643.702 80.0406 646.09 92.1435 646.092C104.249 646.094 116.237 643.711 127.422 639.077C138.607 634.443 148.77 627.65 157.33 619.085C165.89 610.52 172.68 600.352 177.312 589.162C181.943 577.971 184.326 565.977 184.323 553.865C184.311 529.542 174.693 506.208 157.565 488.947C164.223 481.846 170.342 476.514 175.94 472.911C188.267 464.977 200.033 461.591 223.086 461.37C296.001 460.669 354.288 422.361 385.682 373.102C413.314 329.745 416.834 287.439 417.268 263.128C431.051 254.969 442.472 243.358 450.404 229.439C458.336 215.52 462.506 199.773 462.503 183.75C462.501 171.641 460.115 159.651 455.482 148.464C450.848 137.277 444.058 127.113 435.498 118.552C426.939 109.991 416.778 103.201 405.595 98.5692C394.413 93.9373 382.428 91.5545 370.325 91.5569C370.011 91.5553 369.697 91.5553 369.383 91.5569C345.109 91.8081 321.914 101.632 304.837 118.894C287.76 136.156 278.179 159.462 278.177 183.75C278.172 199.998 282.459 215.958 290.603 230.015C298.747 244.072 310.458 255.727 324.552 263.799C324.293 281.435 322.281 300.26 307.617 323.281C291.788 348.12 264.266 368.135 222.211 368.539C192.8 368.825 164.085 374.435 138.551 387.494V172.008C152.541 163.909 164.156 152.271 172.231 138.262C180.306 124.253 184.557 108.366 184.556 92.1944C184.554 80.085 182.169 68.0946 177.535 56.9078C172.902 45.721 166.111 35.5569 157.551 26.9959C148.991 18.4349 138.83 11.6447 127.647 7.01292C116.465 2.38114 104.48 -0.00145001 92.3765 0.00120274C92.0627 -0.000400912 91.7489 -0.000400912 91.4351 0.00120274H91.44ZM90.7916 46.4332C91.3303 46.4238 91.8692 46.4238 92.4079 46.4332C104.679 46.4371 116.447 51.3162 125.124 59.9979C133.801 68.6796 138.678 80.4534 138.681 92.7311C138.684 98.8133 137.489 104.836 135.165 110.457C132.841 116.077 129.433 121.184 125.136 125.486C120.839 129.788 115.737 133.202 110.122 135.531C104.506 137.861 98.487 139.061 92.4079 139.063C86.3288 139.061 80.3097 137.861 74.6941 135.531C69.0785 133.202 63.9765 129.789 59.6795 125.486C55.3824 121.184 51.9745 116.077 49.6503 110.457C47.3261 104.837 46.1311 98.8134 46.1337 92.7311C46.13 80.7274 50.7848 69.1911 59.1168 60.5542C67.4488 51.9172 78.8071 46.8545 90.7973 46.4332H90.7916ZM368.703 137.989C369.242 137.98 369.781 137.98 370.319 137.989C382.591 137.993 394.358 142.872 403.035 151.554C411.713 160.235 416.589 172.009 416.593 184.287C416.595 190.369 415.4 196.392 413.076 202.012C410.752 207.632 407.344 212.739 403.047 217.042C398.75 221.344 393.648 224.757 388.033 227.087C382.417 229.416 376.398 230.616 370.319 230.618C364.24 230.616 358.221 229.416 352.606 227.087C346.99 224.758 341.888 221.344 337.591 217.042C333.294 212.74 329.886 207.632 327.562 202.012C325.238 196.392 324.043 190.369 324.046 184.287C324.042 172.289 328.692 160.757 337.017 152.121C345.342 143.485 356.692 138.419 368.676 137.989H368.703ZM90.5235 508.104C91.0623 508.094 91.6012 508.094 92.1399 508.104C104.411 508.108 116.179 512.987 124.856 521.668C133.533 530.35 138.41 542.124 138.414 554.402C138.416 560.484 137.221 566.507 134.897 572.127C132.573 577.747 129.165 582.854 124.868 587.157C120.571 591.459 115.469 594.872 109.854 597.202C104.238 599.531 98.2189 600.731 92.1399 600.733C86.0608 600.731 80.0417 599.531 74.4262 597.202C68.8107 594.872 63.7088 591.459 59.4118 587.157C55.1149 582.854 51.7071 577.747 49.3829 572.127C47.0588 566.507 45.8638 560.484 45.8663 554.402C45.8624 542.403 50.5126 530.872 58.8376 522.236C67.1626 513.6 78.5125 508.534 90.4969 508.104H90.5235Z" fill="black"/>
<path d="M393.658 646.091C439.48 646.091 476.626 608.945 476.626 563.123C476.626 517.301 439.48 480.155 393.658 480.155C347.836 480.155 310.689 517.301 310.689 563.123C310.689 608.945 347.836 646.091 393.658 646.091Z" fill="black"/>
</svg>
