<svg width="74" height="100" viewBox="0 0 74 100" fill="none" xmlns="http://www.w3.org/2000/svg">
<path d="M37 26C57.4345 26 74 42.5655 74 63C74 83.4345 57.4345 100 37 100C16.5655 100 0 83.4345 0 63C0 42.5655 16.5655 26 37 26ZM37 28C17.67 28 2 43.67 2 63C2 82.33 17.67 98 37 98C45.5613 98 53.4024 94.9236 59.4844 89.8193C59.2447 90.0205 59.0029 90.2193 58.7578 90.4141L51.6221 83.2783C47.5102 86.2484 42.46 88 37 88C23.1929 88 12 76.8071 12 63C12 49.1929 23.1929 38 37 38C50.8071 38 62 49.1929 62 63C62 68.46 60.2484 73.5102 57.2783 77.6221L64.4141 84.7578C64.2193 85.0029 64.0205 85.2447 63.8193 85.4844C68.9236 79.4024 72 71.5613 72 63C72 43.67 56.33 28 37 28ZM60.3154 89.0996C60.5501 88.8898 60.7818 88.6769 61.0107 88.4609C60.7818 88.6769 60.5501 88.8898 60.3154 89.0996ZM62.417 87.0576C61.9763 87.523 61.523 87.9763 61.0576 88.417C61.5231 87.9763 61.9763 87.5231 62.417 87.0576ZM63.1533 86.2549C63.3595 86.0232 63.5627 85.7889 63.7627 85.5518C63.5627 85.7889 63.3595 86.0232 63.1533 86.2549ZM14.0234 64C14.5329 75.907 24.093 85.4671 36 85.9766V64H14.0234ZM38 85.9766C49.907 85.4671 59.4671 75.907 59.9766 64H38V85.9766ZM36 40.0225C24.093 40.5319 14.5329 50.093 14.0234 62H36V40.0225ZM38 62H59.9766C59.4671 50.093 49.907 40.5319 38 40.0225V62ZM32.7139 16.2588C33.8567 18.2812 35.5715 20.1689 37 20.1689C38.4285 20.1689 40.4284 18.4159 41.5713 16.2588H43.4287C42.0001 19.0901 39.1428 21.5 37 21.5C35.0001 21.5 32.286 19.0901 30.8574 16.2588H32.7139ZM46 15.4492H28.1426V14.1016H46V15.4492ZM38 2.50586H40V4L38 3.98828V8.97754C38.4286 8.84271 39.2857 8.43848 40 8.43848C42.5714 8.43848 44.4287 10.3258 44.4287 13.0225H42.5713C42.5713 11.5393 42 9.9209 40 9.9209C38.8571 9.9209 37.4286 10.4607 37 11C36.5714 10.3258 35.2857 9.9209 34 9.9209C31.8571 9.9209 31.7139 11.5393 31.7139 13.0225H30C30 10.3258 31.4286 8.5 34 8.5C34.8571 8.5 35.4286 8.73034 36 9V4L34 3.98828V2.50586H36V0H38V2.50586Z" fill="black"/>
</svg>
