<svg width="74" height="101" viewBox="0 0 74 101" fill="none" xmlns="http://www.w3.org/2000/svg">
<path d="M36 10C35.4286 9.73034 34.8571 9.5 34 9.5C31.4286 9.5 30 11.3258 30 14.0225H31.7143C31.7143 12.5393 31.8571 10.9213 34 10.9213C35.2857 10.9213 36.5714 11.3258 37 12C37.4286 11.4607 38.8571 10.9213 40 10.9213C42 10.9213 42.5714 12.5393 42.5714 14.0225H44.4286C44.4286 11.3258 42.5714 9.4382 40 9.4382C39.2857 9.4382 38.4286 9.8427 38 9.97753V4.98876L40 5L40 3.50562H38V1H36V3.50562H34V4.98876L36 5V10Z" fill="black"/>
<path d="M46 15.1011H28.1429V16.4494H46V15.1011Z" fill="black"/>
<path d="M30.8571 17.2584C32.2857 20.0899 35 22.5 37 22.5C39.1429 22.5 42 20.0899 43.4286 17.2584H41.5714C40.4286 19.4157 38.4286 21.1685 37 21.1685C35.5714 21.1685 33.8571 19.2809 32.7143 17.2584H30.8571Z" fill="black"/>
<circle cx="37" cy="64" r="36" stroke="black" stroke-width="2"/>
<path d="M64.4141 85.7578C62.75 87.8516 60.8516 89.75 58.7578 91.4141L51.6221 84.2783C53.7964 82.7077 55.7077 80.7964 57.2783 78.6221L64.4141 85.7578Z" fill="black"/>
<path d="M37 38.5C51.0833 38.5 62.5 49.9167 62.5 64C62.5 78.0833 51.0833 89.5 37 89.5C22.9167 89.5 11.5 78.0833 11.5 64C11.5 49.9167 22.9167 38.5 37 38.5ZM14.5518 65.5C15.2908 76.7309 24.2691 85.7092 35.5 86.4482V65.5H14.5518ZM38.5 86.4482C49.7309 85.7092 58.7092 76.7309 59.4482 65.5H38.5V86.4482ZM38.5 62.5H59.4482C58.7092 51.269 49.7309 42.2889 38.5 41.5498V62.5ZM35.5 41.5498C24.2691 42.2889 15.2908 51.269 14.5518 62.5H35.5V41.5498Z" fill="black" stroke="black"/>
</svg>
